<svg id="Capa_1" enable-background="new 0 0 512 512" height="512" viewBox="0 0 512 512" width="512" xmlns="http://www.w3.org/2000/svg"><g><g><path d="m125.14 288.956c-4.268 0-7.726-3.459-7.726-7.726v-146.353c0-52.719 42.89-95.61 95.61-95.61h43.264c4.268 0 7.726 3.459 7.726 7.726s-3.459 7.726-7.726 7.726h-43.264c-44.198 0-80.157 35.958-80.157 80.157v146.352c0 4.269-3.459 7.728-7.727 7.728z" fill="#454045"/></g><g><path d="m418.106 69.569c-.781 0-1.574-.119-2.358-.37l-73.594-23.567c-4.064-1.301-6.304-5.651-5.002-9.714 1.301-4.064 5.648-6.306 9.714-5.002l73.594 23.567c4.064 1.301 6.304 5.651 5.002 9.714-1.05 3.281-4.087 5.372-7.356 5.372z" fill="#eadfda"/></g><g><path d="m368.64 512h-127.373c-7.069 0-12.799-5.73-12.799-12.799v-38.255h152.972v38.255c-.001 7.069-5.731 12.799-12.8 12.799z" fill="#544f57"/><path d="m362.607 460.946v38.255c0 7.069-5.73 12.799-12.799 12.799h18.833c7.069 0 12.799-5.73 12.799-12.799v-38.255z" fill="#454045"/></g><path d="m327.835 88.313v-30.076h-48.802v30.076c0 4.292-3.059 7.998-7.285 8.75-38.95 6.928-68.528 40.944-68.528 81.885v276.502c0 14.624 11.855 26.479 26.479 26.479h147.471c14.624 0 26.479-11.855 26.479-26.479v-276.503c0-40.941-29.578-74.956-68.528-81.885-4.227-.751-7.286-4.457-7.286-8.749z" fill="#da4a54"/><g><path d="m335.12 97.063c-4.226-.752-7.285-4.457-7.285-8.75v-30.076h-19.108v38.469c0 4.292 3.059 7.998 7.285 8.75 38.95 6.928 68.528 40.944 68.528 81.885v276.503c0 6.992-2.715 13.347-7.142 18.08 14.518-.124 26.25-11.926 26.25-26.474v-276.503c0-40.941-29.578-74.956-68.528-81.884z" fill="#d82e3d"/></g><path d="m303.433 28.68v-21.288c0-4.082 3.309-7.392 7.392-7.392h111.229c3.921 0 7.1 3.179 7.1 7.1v8.357c0 3.07-1.973 5.792-4.89 6.747l-119.31 39.078z" fill="#544f57"/><path d="m422.054 0h-27.934v32.077l30.144-9.873c2.917-.955 4.89-3.677 4.89-6.747v-8.357c-.001-3.921-3.179-7.1-7.1-7.1z" fill="#454045"/><path d="m285.374 60.792h-36.554c-3.272 0-5.925-2.653-5.925-5.925v-15.747c0-3.272 2.653-5.925 5.925-5.925h36.554z" fill="#544f57"/><circle cx="303.433" cy="46.994" fill="#f6f1f1" r="27.756"/><path d="m303.433 19.237c-3.162 0-6.198.536-9.03 1.51 10.895 3.748 18.727 14.079 18.727 26.246s-7.832 22.498-18.727 26.246c2.832.974 5.867 1.51 9.03 1.51 15.329 0 27.756-12.427 27.756-27.756.001-15.329-12.426-27.756-27.756-27.756z" fill="#eadfda"/><path d="m147.532 298.626h-44.784c-3.069 0-5.557-2.488-5.557-5.557v-12.283c0-5.445 4.414-9.859 9.859-9.859h36.18c5.445 0 9.859 4.414 9.859 9.859v12.283c0 3.069-2.488 5.557-5.557 5.557z" fill="#da4a54"/><path d="m143.23 270.928h-20.536c5.445 0 9.858 4.414 9.858 9.859v12.283c0 3.069-2.488 5.557-5.556 5.557h20.536c3.069 0 5.557-2.488 5.557-5.557v-12.283c0-5.445-4.414-9.859-9.859-9.859z" fill="#d82e3d"/><path d="m146.809 298.626h-43.336l-20.496 151.85c-.912 6.757 3.12 12.942 8.438 12.942h67.453c5.318 0 9.35-6.185 8.438-12.942z" fill="#544f57"/><path d="m167.305 450.476-20.496-151.85h-20.536l20.496 151.85c.912 6.757-3.12 12.942-8.438 12.942h20.536c5.317 0 9.35-6.185 8.438-12.942z" fill="#454045"/><g><g><path d="m412.083 197.356h-217.3c-4.268 0-7.726-3.459-7.726-7.726 0-4.268 3.459-7.726 7.726-7.726h217.3c4.268 0 7.726 3.459 7.726 7.726.001 4.267-3.458 7.726-7.726 7.726z" fill="#454045"/></g><g><path d="m412.083 425.018h-217.3c-4.268 0-7.726-3.459-7.726-7.726s3.459-7.726 7.726-7.726h217.3c4.268 0 7.726 3.459 7.726 7.726s-3.458 7.726-7.726 7.726z" fill="#454045"/></g></g><path d="m352.39 376.763h-97.913c-4.484 0-8.119-3.635-8.119-8.119v-130.367c0-4.484 3.635-8.119 8.119-8.119h97.913c4.484 0 8.119 3.635 8.119 8.119v130.367c-.001 4.484-3.635 8.119-8.119 8.119z" fill="#f6f1f1"/><path d="m352.39 230.159h-17.769c4.484 0 8.119 3.635 8.119 8.119v130.367c0 4.484-3.635 8.119-8.119 8.119h17.769c4.484 0 8.119-3.635 8.119-8.119v-130.368c0-4.483-3.635-8.118-8.119-8.118z" fill="#eadfda"/><g><g><path d="m328.702 267.592h-50.536c-4.268 0-7.726-3.459-7.726-7.726 0-4.268 3.459-7.726 7.726-7.726h50.536c4.268 0 7.726 3.459 7.726 7.726s-3.459 7.726-7.726 7.726z" fill="#454045"/></g><g><path d="m328.702 296.656h-50.536c-4.268 0-7.726-3.459-7.726-7.726s3.459-7.726 7.726-7.726h50.536c4.268 0 7.726 3.459 7.726 7.726s-3.459 7.726-7.726 7.726z" fill="#454045"/></g><g><path d="m328.702 325.719h-50.536c-4.268 0-7.726-3.459-7.726-7.726s3.459-7.726 7.726-7.726h50.536c4.268 0 7.726 3.459 7.726 7.726s-3.459 7.726-7.726 7.726z" fill="#454045"/></g><g><path d="m328.702 354.783h-50.536c-4.268 0-7.726-3.459-7.726-7.726s3.459-7.726 7.726-7.726h50.536c4.268 0 7.726 3.459 7.726 7.726s-3.459 7.726-7.726 7.726z" fill="#454045"/></g></g></g></svg>