<svg id="Capa_1" data-name="Capa 1" xmlns="http://www.w3.org/2000/svg" viewBox="0 0 763.42 584.64"><defs><style>.cls-1{fill:#009640;}.cls-1,.cls-3{fill-rule:evenodd;}.cls-2,.cls-3{fill:none;stroke:#009640;stroke-miterlimit:22.93;stroke-width:8.5px;}.cls-4{fill:#fff;}</style></defs><path class="cls-1" d="M1128.75,316h-.91c-4,0-3.19,6.2-2.81,8.18l-7.21-5.54c3.69-1.19-7-13.16,7.57-20.72,15.17-7.89,17.19,8.6,20.7,10.05l-1,.11,3.45,28.55,1.52.3-1.35,2.69,2.51,2.94-1.82,0c0,5.62.6,17.29,4.4,17.32h2.6l1.07-3.61c0,2.92-.34,4.54,2.68,4.57l10.91.09c1.4,0,7.88-1.67,8-4.88a62.47,62.47,0,0,0-.59-11.88l1.82-.43c.08-9.17,1.14-15.39,3.14-25.25.69-3.4,6-18.67,5.42-20.14,4.64-1.2,2.33-2.07,5.21-4.8,1.74-1.65,5-1.93,7.08-2.78l4.12,3.17c-1.09,2.57,2,9.11,6.29,9.14h.9c8.87.08,15.12-16.81,21.09-20.73-.12,1.34-4.52,16.83-5.41,18.33-1.73,2.91-7.71,15.88-7.46,16.26l-1.06.75c-3,2.9-8.67,9.24-15.55,10.78-1.44-.78-4.08-2.76-5.43-2.77l-4.55,0c-3.49,0-5.79,10.71-10,13.51l1.22,6.55-.78-2.14-2.45,2.89-.05,5.45c0,3.94-1.47,2.8-1.68,7.49a113.05,113.05,0,0,0,34.16-13.88c8.62-5,15.62-14.94,20.86-23.72,3.78-6.34,9.15-25.87,8.77-35.28-.19-4.85.38-14.51.44-21.36.09-8.82-1.7-14-1.63-21.38l0-2.27-3.37-26.86-3.36-12.53-8.71-27.19-2.09-5.4-3.07-8.11c-6.2-17.56-12.66-34.48-23-50.12-2.39-3.63-14.14-21.37-17.09-22.19l1.13-4.49,47.07-27.05-134.81,0-.26,4.54.06,12.73c.13,17.94-1.38,36.4-1.53,53.63l.18,5.46-.26,4.54.27,7.28-.41,9.09.33,6.37-1.78,57.26-.08,10c0,4.43.59,9.89.75,14.59.19,5.26,0,10.39.19,13.72.37,7.06,1.69,26.95,1.69,30.81.07,47.15,15.13,47.92,48.11,70.41,7.37.06,9.33,2.81,5.68-5.53-2.05-4.67-3.61-9-5.54-13.55-2.39-5.66-7.76-22.81-14.34-22.86Zm81.56-183.88c1.6,1.63-1.61-1.63,0,0Zm16.76,168.34c-1.6-1.63,1.61,1.63,0,0Zm-46.75,46Zm-65-56.91c-1.7,0-6.49-4.06-7.25-6.39-1.83-5.59-1.08-4.15-1.77-10.91-.66-6.47-1.63-12.76-1.56-21.89,2.74,2,6.61,13.7,10.8,13.73,8.26.07,8.54-6.49,14.61-8.06l-.48-2,.36-.92.85.85,2.24-2.29c4.21,2,11.54.35,15.44,3.36a61.45,61.45,0,0,1,8.92,9.25c3.45,4.3,6.11,19.22,6.87,26.6,2.16,20.93-5.76,43.74-5.94,64.45-3.82-1.06-3.58-10.91-3.52-15.47.11-8.63-1.73-8.8-1.68-14.58l.07-8.18h-1.82l1-.16-3.07-19-.94.08h0l-1.51-.77,2.17-1.77c-3.78-2.64-3-10.21-11-10.28-7.59-.06-12.47,4.44-20.95,4.37Zm-1.21-71.84c3.32-4.87,17.32-16.22,24.69-16.16l5.45.05c10.58.09,13.5,9.79,18.09,11.06l-.84.36,2.42,5.59,1.1-.47,0,2.73c0,1.73.32,1.85,1.4,3.21,2.65,3.35.19-.68,1.29.45l1.06.76-.93.33,2,9c.44,5.89,2.05,8.75,2.56,12.8.29,2.32-.44,9.34-.47,13.47-.09,10.31-2,18-2,27.26-1.23-1.44-8-25-10.49-30.26-3.13-6.57-12.31-19.94-20.91-20l-2.73,0c-5.39,0-14.39,6-12.81,9.9l-10.85,3.83-1.14-1,.32-6.53-.08-4.53c0-3.3-.2-.89.92-1.81l-1-2.2,1.05-.53,0-4.55c0-3.3.21-.88-.9-1.82l2.82-10.89Zm103.41,28.15c4.76,2.82,11.47-10.4,16.47-11.68-2.21,4.49-3.7,19.82-4.84,23.45-1.49,4.73-1.07,6.12-3.09,11.57-1.18,3.17-4.77,6.81-5.19,10.32l-3-1.47-2.38,1.56c-11.63-.23-14.68,6.83-22.9,6.95l0-3.64c.06-6.93-.25-6.23,1.75-14.72,1.81-7.68,3.63-9.86,4.86-14.31,10.27-.15,13.64-3.5,17.33-7.13l.92-.9Zm-83-76.17c1-2.19-4.72-35.66-2.35-45.47,12,.36,22.1,28.21,27.47,37.9,3.56,6.42,8.36,14,10.23,20.6,1,3.36,7.63,21,9.81,21.9l7.77,27.69,2.43,13.23-.57,2.81,3,1.45-3,1.22c1.19,2.46.94-.69.91,2.79,0,3.94-2.7,21.95-5.68,26.32l-2.18,12.66-1.71,2.65-2.11,11.14c-.64,6.59-11.47,43-14.6,45.2l6.66-38.9,1.14-1.77c-.12-8.05,1.83-15,2.82-22.8.39-3.08,1.57-8.68,1.84-11.88.45-5.45-1.51-10.1,1-10.91l0-4.55-.19-4.54.28-6.37c0-4.24.26-18.16-3.46-20.94l1.15-4.49c-4.61-6.75-.46-8.13-5.56-11,2.88-4.46-3.43-11.05-4.42-15.49l-2.67,1,1.91-2.77.51-.8-12.73-11.82-5.09.55c-9.18-6.26-6-4.39-10.79-13.73l-1.81-.93Zm78.38,26,.47,2.82,5.28,1.46,1.22.27,7.66,13.46,1-.15-1.84,2.17c1.22,4.8,2.44,12.4-3.07,15.28-5.85,3.07-11.75-3.44-15-4.34L1195,250.27l-1.24-.13.58-39.08c2.48-1.86,11-16,18.06-12.6l.56-2.79Zm-57.29-74.94,5.28,2.94c-.54.73,21.2,13.72,24.8,16.4,11.89,8.84,10.62,22,16.48,33.38,2.24,4.38,2.21,2.39,6.11,4.8,3.22,2,11.58,5.06,12.47,8.49l-2.73,0c-5.64-.05-15.06,2-22.65,3.3l-4.65-.57c-5.87-.81-10.39-6.1-16.29-8.55l1.51-6.45.33-5.36.1-2.72c0-6.15-5.91-11-10.94-13.58-3.08-1.58-5-4.4-8-4.76-1.26-4.34-.89-2.15-.86-6.37.06-6.32-.94-13.57-1-20.92Zm-25.88,55.43c3.38,2.38,7.41,6.37,7.36,11.69l0,2.73,2,.52c-4.33.82-5,4.91-7.81,7.27-2.47,2.06-5.38,3.68-8.37,6.16-2.5,2.08-15.78,10.28-18.71,10.32,2.79-5.68,6.48-13.18,6.53-19.95l0-1.82c0-2.27-3.75-5.89-4.67-7.64-.24-.46-2-4.92-3.12-7.24-2.87-6.07-1.05-14.8-1-18.83,0-2.48,1.31-11.05,3.76-14.52l-1.62-2,.58-.87,2,1.07c.52-5.76,3.61-14.7,7.41-17.21,5.28,3.6,11.81,13.65,13.46,21l-4.78,10.3-.79,4.2,2,.51-3.12,2.92c3.63,7.45,2.5,6.75,9,11.37Zm-20.21-61.28c-4-1.1-16.43-37.41,12.13-37.17l8.18.07c13.1.11,7.21,21,20.32,23.34,5.6,1,10.45-3.9,14.67-6.1,5.25-2.74,10.31-3.75,14.92-5.91l2.51,2.16c.44,16.47-14.17,20-16.38,25.91-6.89-.06-8.31,2.7-14.44.69-2-.65-4.25-1.06-6.36-1.89-.24-.09-3.08-1.4-3.21-1.42a6.26,6.26,0,0,0-1.22,0c-.24,0-.82.89-1.12.59l-1-.77c1.29-2.53-8.51-15.68-14.27-15.73l-5.45,0C1115,98.56,1110.43,111.19,1109.53,114.88Z" transform="translate(-984.49 -20.31)"/><path class="cls-1" d="M1586.31,390.89l1.51.58,6.12,21c-5-.25-3.86-1.69-7.8-1.72h-.91c-3.13,0-5.25,4.13-6.42,6.31l-7.66,8.61,8.95-26.37-.95-1,.94,0,6.22-7.39Zm-72.7-5.32c10.31.09,14.34,2.24,19.65,10.43,5.48,8.44,4,15.46,7.35,22.53-5.6-1.55-8.54-15.53-18-15.61-3.47,0-3.42,10.88-8.28,10.84-1.23,0-.49-1-3.62-1.85,1.78-3.75-3.54-11.59-3.51-14.57v-.91c.06-7.05,2.38-8.18,6.45-10.86Zm15-55.33c3.57-2.35,2.19-4.65,6.29-6.45,3-1.33,6.61-3.21,7.41-.71,12.49.11,24.42,15.72,24.31,28.39l0,3.64-2.36,24.57c-5.23-8.67-4.12-27.14-18.49-31.11l-.48,1.81c-3.09-1.57-8.24,2.47-8.69,6.29l-3.68.72c-10.13-5.33-1.75-21.58-4.28-27.15Zm71,75.31c-1.32,14.69-11.69,12.66-11.71,15.19,0,6.22,20.73-3.22,22.51-11,1.36-6,.9-33.32-3.05-33.35-2.65,0-1,.75-4.55,1.78l-1,3.63c1.12,2.45-2,20.54-2.25,23.78Zm11-72.65.89.61c-.18.21-.3,11.14-.1,12.68.71,5.46,1.11,5.51,5.23,8.43l-4.55,0,2.24,3.14-1.31.64-.1,6.23-12.63-4-6.6,13.77,1.67,2-1.64.26.89.71-3.13,10.8-1.54-13.88-.76-19,9.7-10.48,11.74-11.92Zm-53.58-27,0,4.54c0,4.45,2.16,11.46,5.48,12.82l-1.21,1.92,1.37.54L1573,340.62l.9,10.91.13,10-1.2,10-1.63-.55,1,.8-5.7,22.21-7.72,25.33,1,.29c3-2.18,13-22.4,14.67-27.27,2-6.07,4.18-8.72,5.5-13.66,1.6-6,2.12-12.76,4-16.15-1.94-8.67-3.53-23.41-5-29.24-1.76-6.84-11.7-24.69-11.78-25.45-5.16-.47-3.42-2.76-5.43-2.77a14.9,14.9,0,0,0-4.56.87Zm-51.4,57.75,1,62.75,37.58.31,29.09,0,10,.1,5.46.31,7.27-.19,21.81-.09,1.43-168.57c-39.59,14.34-77.91,40.94-114.67,82.33l1.35,22.17,3.29-1.07,9.87-20.36,1.27-.26,0,2.73c0,3.74,1.63,5.32,1.77,5.47l1.05.76-2.16,1.77,6,14.94,14.93,0c13.87.11,20.83,9.88,20.72,22.9,0,4.29-2.12,9.49-2.92,14.45-.91,5.65-4,6.63-5.48,11.85-1.42-1.06-1.82-.19-1.8-2.75l.07-8.18h-1.81c1.11-1.63,1.83-1.58,1.84-3.62,0-3.5-.47-3.75-2.69-4.57l1.79-1c-.11-10.92-8.26-11.95-16.25-12.63-8.71-.75-20.88-.18-21.72-8.47l-1.64.53.64-.95-4.66-9.48-.79-.52-1.64-.56Zm100.72-78.8-6.39.69c-4.74,2.91-19.2,9.44-19.25,16l.11,8.18-.23,6.37h1.81l0,2.73c0,3.83,2.74,6.64,3.08,9.08.44,3.09,2,8.51,2.21,11h1.82l0-4.54c.08-10,.69-18.46,6.41-22.63l1,1.78,0-1.82c7.2.22,5.9,7.32,13.57,7.39,4.59,0,2.9-14.88,2.87-18.15C1613.33,292,1611.13,288.81,1606.33,284.88Z" transform="translate(-984.49 -20.31)"/><path class="cls-1" d="M1505.35,132.65l.11,16.39-.26,2.73.19,4.54-.25,2.73.13,10,.45,32.73-.11,10a404.14,404.14,0,0,1,113.83-60.52c.65-30.35-.19-60.89.07-91.27l-7.16-.06c1,3.87,1.81,1.61,1.78,4.56v.91c0,5.51-10.24,8.73-12.84,13.53-6.48.09-17.7,12.58-31.93,12.46-7.71-.06-9-1.82-14.38-3.88-10.21-3.87-5.41-1.74-16.48-1.83l-1.1,2.65-2.48-1-6.23,4.11-2.93,7.84,2.65-.88-.28,4.49-2.16-2.18-.68.67,2.19,2.38-2.79.87-.63,5.55,1.64.47c-2,1.12-2,1.64-2,4.94l0,5.45,4.17,3.16c.42,5,7.48,12.5.22,15.06l1.06,2.67c-1.58-1.58-1.24-2.67-3.79-2.69-1.25,0-2.19,1.88-2.75,2.7.24,3.21,1.34,3.74.85,7.28l-5.54,39.08c-4.8-3.43-6.19-54-10.66-58.31l4.67-5.35-3-16.4c-.56-6.68,4-21.85,6.18-26.21,4.73-9.59,13.8-10.51,15.43-16.39,4,1.89,2.38-.89,7.28-.85l1.82,0,7.39,1,24.61,9.52,22.1-9.2,6.24-2.92,11.45-2.62.07-.59-19.09,0-54.55-.66H1505l.07,34.28.29,39.07Zm33.59,7.58c18.7,12.75,25.5,11.07,42.77-.51,4.56-3.06,2.33-3,7.74-5.85,5-2.62,5-4,8.8-6.68,3.06-2.21,14.5-12,17.28-12.68-.55,6-17,32.43-21,36.43-14.36,14.26-19.88,12.32-41.25,12.14l-2.73,0,0,1.82-3-1.48-19.7-5.11c0-5.77,7.75-15.89,11-18.06Zm60.92-.39ZM1581,116c3.52,0,26.4-27.06,30.23-27l2.73,0c-.14,16.15-24.41,36.5-23.07,39.81-3.23.83-10.8,9-15.53,9l-4.55,0v1.82c-1.39-1.49-6.32-2.33-9.3-3.48-5.78-2.23-3.78-3.6-7.89-6.67,1.88-4-1.57-7.93-3.55-10.94l-3.6.12,0-1.05c-3.61.8-4.84.71-3.67,3.6-5,.5-1.51,2.72-7.3,2.67a3.49,3.49,0,0,1-3.6-3.67l0-5.45c.06-6.51,3.4-10.56,3.76-14.52l2.73,0c1.66,0,5.64-3.59,11.85-3.53,5.27,0,10.37,5.41,12.46,8.47,1.75,2.56,8.92,10.11,9.2,10.8Z" transform="translate(-984.49 -20.31)"/><rect class="cls-2" x="4.25" y="4.25" width="370.69" height="433.47"/><rect class="cls-2" x="24.11" y="26.34" width="330.97" height="387.03"/><rect class="cls-2" x="408.48" y="28.74" width="330.97" height="387.03"/><rect class="cls-2" x="388.48" y="5.17" width="370.69" height="433.47"/><path class="cls-3" d="M1085.86,46.65c-4.58,97.61-3.09,172.81-1.42,224.72.54,16.77-1.63,31.8.69,44.45,3.61,19.73,12.95,33.68,20.46,39.42,54.16,41.39,121,15.2,143.11-24.16,23.4-41.66,13.82-120.23-51.37-243.72" transform="translate(-984.49 -20.31)"/><line class="cls-2" x1="209.24" y1="67.74" x2="277.36" y2="26.34"/><path class="cls-3" d="M1267.6,46.65c57.41,89.73,72,163,72,228.49,0,71.81-33.16,126.45-110.65,158.54" transform="translate(-984.49 -20.31)"/><path class="cls-3" d="M1121.82,433.68q-94.12-8.16-113.22-90.19" transform="translate(-984.49 -20.31)"/><path class="cls-3" d="M1085.86,46.65c-72.64,72.83-77.26,78-77.26,78" transform="translate(-984.49 -20.31)"/><polygon class="cls-1" points="308.33 39.43 342.9 39.08 343.3 108.18 308.33 39.43"/><polygon class="cls-1" points="36.51 38.32 60.15 38.52 36.8 63.34 36.51 38.32"/><path class="cls-1" d="M1020.91,394.12l.56,29.11,34.65.28A178.1,178.1,0,0,1,1020.91,394.12Z" transform="translate(-984.49 -20.31)"/><path class="cls-1" d="M1270.68,424.4l57.24.49-.37-60C1313.66,390.2,1294.25,409.55,1270.68,424.4Z" transform="translate(-984.49 -20.31)"/><path class="cls-3" d="M1495.31,49.05l-2.39,189.38c39.15-36.78,84-65.33,139-79.2l-2-110.18" transform="translate(-984.49 -20.31)"/><path class="cls-3" d="M1628.94,434.39l0-195.65c-52,23-96.14,55.06-132,96.65V436.08" transform="translate(-984.49 -20.31)"/><line class="cls-2" x1="0.15" y1="578.97" x2="762.94" y2="580.39"/><path class="cls-4" d="M1075.64,543.55l19.7,6.24q-4.53,16.5-15.08,24.51c-7,5.32-16,8-26.76,8q-20,0-33-13.7t-12.92-37.48q0-25.15,13-39.07t34.15-13.91q18.46,0,30,10.93c4.59,4.29,8,10.49,10.31,18.55l-20.14,4.81a20.8,20.8,0,0,0-21.23-16.91c-7.45,0-13.53,2.68-18.17,8.05s-7,14-7,26q0,19.1,6.87,27.2a22.26,22.26,0,0,0,17.85,8.12,20.32,20.32,0,0,0,14-5.16Q1073.09,554.62,1075.64,543.55Z" transform="translate(-984.49 -20.31)"/><path class="cls-4" d="M1108.69,530.84q0-15.4,4.59-25.84a47.87,47.87,0,0,1,9.38-13.82,39.71,39.71,0,0,1,13-9.05,55.11,55.11,0,0,1,21.72-4q22.26,0,35.62,13.82t13.37,38.39q0,24.4-13.27,38.18t-35.44,13.77q-22.48,0-35.74-13.7t-13.25-37.76Zm20.94-.68q0,17.1,7.9,25.94a27.18,27.18,0,0,0,40,0q7.77-8.76,7.78-26.27,0-17.31-7.57-25.84t-20.17-8.52q-12.6,0-20.29,8.63C1132.21,509.9,1129.63,518.55,1129.63,530.16Z" transform="translate(-984.49 -20.31)"/><path class="cls-4" d="M1222.31,580.58V479.86h42.83q16.14,0,23.45,2.72a23.08,23.08,0,0,1,11.73,9.64,29.06,29.06,0,0,1,4.38,15.87c0,7.55-2.22,13.82-6.66,18.74s-11.09,8-19.93,9.29a47.58,47.58,0,0,1,10.9,8.46c2.87,3.08,6.71,8.52,11.57,16.35l12.31,19.65h-24.32l-14.71-21.92q-7.84-11.76-10.71-14.8a15.81,15.81,0,0,0-6.13-4.2c-2.15-.75-5.55-1.13-10.24-1.13h-4.11v42.05Zm20.36-58.13h15q14.64,0,18.3-1.22a11.1,11.1,0,0,0,5.7-4.27,13.21,13.21,0,0,0,2.06-7.55,12,12,0,0,0-2.72-8.21,12.54,12.54,0,0,0-7.67-4q-2.46-.32-14.84-.32h-15.86Z" transform="translate(-984.49 -20.31)"/><polygon class="cls-4" points="339.44 560.27 339.44 459.54 359.8 459.54 359.8 499.18 399.65 499.18 399.65 459.54 419.98 459.54 419.98 560.27 399.65 560.27 399.65 516.23 359.8 516.23 359.8 560.27 339.44 560.27"/><path class="cls-4" d="M1425.37,479.86h20.33v54.55c0,8.65.26,14.28.75,16.84a16.35,16.35,0,0,0,6.22,9.92c3.28,2.51,7.76,3.75,13.43,3.75s10.14-1.17,13.07-3.54a13.88,13.88,0,0,0,5.27-8.68q.91-5.18.9-17.12V479.86h20.33v52.9c0,12.11-.54,20.64-1.64,25.64A28.39,28.39,0,0,1,1498,571a31,31,0,0,1-11.84,8.21q-7.42,3.06-19.4,3-14.42,0-21.88-3.33a31.39,31.39,0,0,1-11.77-8.66,27.81,27.81,0,0,1-5.7-11.16q-2-8.65-2-25.56Z" transform="translate(-984.49 -20.31)"/><rect class="cls-4" x="542.01" y="459.54" width="20.33" height="100.73"/><polygon class="cls-4" points="582.27 560.27 582.27 460.36 602.61 460.36 602.61 543.29 653.17 543.29 653.17 560.27 582.27 560.27"/><path class="cls-4" d="M1743,580.58h-22.14l-8.79-22.89h-40.27l-8.3,22.89h-21.58l39.23-100.72h21.51L1743,580.58Zm-37.45-39.84-13.89-37.39-13.6,37.39Z" transform="translate(-984.49 -20.31)"/></svg>