<svg id="Capa_1" data-name="Capa 1" xmlns="http://www.w3.org/2000/svg" viewBox="0 0 763.42 584.64"><defs><style>.cls-1{fill:#009640;}.cls-1,.cls-3{fill-rule:evenodd;}.cls-2,.cls-3{fill:none;stroke:#009640;stroke-miterlimit:22.93;stroke-width:8.5px;}.cls-4{fill:#020202;}</style></defs><path class="cls-1" d="M158.72,309.23h-.91c-4.05,0-3.19,6.2-2.81,8.18l-7.22-5.54c3.69-1.19-7-13.15,7.58-20.72,15.17-7.88,17.19,8.6,20.7,10.05l-1,.11,3.45,28.55,1.52.3-1.35,2.69,2.5,2.94h-1.81c0,5.61.6,17.28,4.4,17.31h2.6l1.06-3.61c0,2.92-.33,4.55,2.69,4.57l10.91.09c1.4,0,7.88-1.67,8-4.88a61.57,61.57,0,0,0-.58-11.88l1.82-.43c.07-9.17,1.14-15.39,3.14-25.25.69-3.4,6-18.67,5.42-20.14,4.64-1.2,2.33-2.07,5.21-4.79,1.74-1.66,5-1.94,7.08-2.79l4.11,3.17c-1.08,2.57,2,9.11,6.29,9.15h.91c8.87.08,15.12-16.81,21.09-20.73-.12,1.34-4.52,16.84-5.41,18.34-1.73,2.9-7.71,15.87-7.46,16.25l-1.07.75c-3,2.9-8.66,9.24-15.54,10.78-1.44-.78-4.09-2.76-5.44-2.77l-4.54,0c-3.49,0-5.79,10.71-10,13.51l1.22,6.55-.79-2.14-2.45,2.89,0,5.45c0,3.94-1.47,2.8-1.69,7.49a112.75,112.75,0,0,0,34.17-13.88c8.62-5,15.62-14.93,20.86-23.72,3.78-6.34,9.14-25.87,8.77-35.27-.19-4.85.38-14.51.44-21.37.08-8.82-1.7-14-1.64-21.38l0-2.27-3.37-26.85-3.37-12.54-8.7-27.19-2.1-5.4-3.07-8.11c-6.19-17.56-12.65-34.47-23-50.12-2.4-3.63-14.14-21.37-17.1-22.18l1.14-4.49,47.07-27.06-134.81,0-.27,4.54L125.45,68c.13,17.94-1.38,36.4-1.52,53.63l.18,5.46-.27,4.54.28,7.28-.41,9.09.33,6.37-1.78,57.26-.08,10c0,4.43.58,9.89.75,14.59.19,5.26,0,10.39.18,13.72.38,7.06,1.7,27,1.7,30.81.07,47.15,15.12,47.92,48.1,70.41,7.38.06,9.34,2.81,5.69-5.52-2-4.68-3.61-9-5.54-13.56-2.39-5.66-7.76-22.81-14.34-22.86Zm81.55-183.88ZM257,293.69Zm-46.76,46c-1.62,1.61,1.64-1.6,0,0Zm-65-56.91c-1.7,0-6.49-4.06-7.25-6.39-1.83-5.59-1.08-4.15-1.77-10.91-.66-6.47-1.64-12.76-1.56-21.89,2.74,2,6.61,13.7,10.8,13.73,8.26.07,8.54-6.49,14.61-8.06l-.48-2,.35-.92.86.85,2.24-2.29c4.21,2,11.53.35,15.43,3.36a61,61,0,0,1,8.93,9.25c3.45,4.31,6.11,19.22,6.87,26.6,2.16,20.93-5.77,43.74-5.94,64.45-3.83-1.06-3.59-10.9-3.53-15.47.12-8.63-1.72-8.8-1.67-14.58l.07-8.18h-1.82l1-.16-3.06-19-.94.07h0l-1.51-.77,2.16-1.77c-3.77-2.64-3-10.21-11-10.28-7.59-.06-12.47,4.44-20.95,4.37Zm-1.21-71.84c3.32-4.87,17.31-16.22,24.68-16.16l5.46.05c10.57.09,13.5,9.8,18.09,11.06l-.84.37,2.42,5.58,1.1-.47,0,2.73c0,1.73.32,1.85,1.4,3.21,2.65,3.35.18-.68,1.29.45l1.06.76-.93.33,2,9c.45,5.89,2.06,8.75,2.57,12.8.29,2.32-.44,9.34-.48,13.47-.08,10.31-2,18-2,27.26-1.22-1.44-8-25-10.48-30.26-3.13-6.57-12.31-19.94-20.91-20l-2.73,0c-5.39,0-14.39,6-12.81,9.89l-10.85,3.83-1.15-1,.33-6.52-.08-4.54c0-3.3-.2-.89.92-1.81l-1-2.19,1-.54,0-4.54c0-3.31.22-.89-.89-1.83l2.82-10.89ZM247.5,239.06c4.76,2.82,11.47-10.4,16.46-11.68-2.2,4.49-3.69,19.83-4.83,23.45-1.49,4.73-1.07,6.12-3.1,11.58-1.17,3.16-4.76,6.8-5.18,10.31l-3-1.47-2.38,1.56c-11.63-.23-14.68,6.84-22.9,6.95l0-3.64c.06-6.93-.26-6.23,1.75-14.72,1.81-7.68,3.63-9.85,4.86-14.31,10.26-.15,13.64-3.5,17.33-7.13l.92-.9Zm-83-76.16c1-2.19-4.71-35.67-2.34-45.48,12,.37,22.1,28.22,27.47,37.9,3.55,6.42,8.36,14,10.23,20.6,1,3.36,7.63,21,9.81,21.91l7.76,27.69,2.44,13.22-.57,2.81,3,1.45-3,1.23c1.19,2.45.94-.7.91,2.78,0,3.94-2.7,21.95-5.68,26.32L212.3,286l-1.72,2.65-2.1,11.14c-.64,6.6-11.47,43-14.61,45.2l6.67-38.89,1.13-1.78c-.11-8.05,1.84-15,2.83-22.8.39-3.08,1.57-8.68,1.84-11.88.45-5.45-1.51-10.1,1-10.91l0-4.54-.19-4.55.28-6.36c0-4.25.26-18.17-3.46-20.94l1.15-4.5c-4.62-6.75-.47-8.13-5.57-11,2.88-4.46-3.42-11.05-4.41-15.49l-2.67,1.06,1.9-2.78.52-.8L182.19,177l-5.09.55c-9.18-6.26-5.95-4.39-10.79-13.73l-1.82-.92Zm78.39,26,.47,2.83,5.28,1.45,1.22.27,7.66,13.46,1-.15L256.66,209c1.22,4.8,2.44,12.4-3.07,15.28-5.86,3.07-11.75-3.44-15-4.34l-13.65,23.63-1.24-.12.58-39.09c2.48-1.86,11-16,18.05-12.6l.57-2.79ZM185.59,114l5.28,2.94c-.54.74,21.2,13.73,24.79,16.4,11.9,8.84,10.63,22,16.48,33.38,2.25,4.38,2.21,2.39,6.12,4.81,3.22,2,11.58,5.05,12.46,8.48L248,180c-5.65,0-15.07,2-22.65,3.3l-4.65-.57c-5.87-.81-10.39-6.1-16.3-8.55l1.51-6.45.34-5.36.09-2.72c.06-6.15-5.9-11-10.94-13.58-3.08-1.58-5-4.4-8-4.76-1.25-4.34-.89-2.14-.85-6.37,0-6.31-.94-13.57-1-20.92Zm-25.88,55.43c3.38,2.38,7.4,6.37,7.36,11.69l0,2.73,1.95.52c-4.33.83-5,4.92-7.82,7.27-2.46,2.06-5.38,3.68-8.36,6.16-2.51,2.08-15.79,10.28-18.71,10.32,2.79-5.68,6.48-13.18,6.53-19.95l0-1.81c0-2.28-3.75-5.9-4.67-7.65-.24-.46-2-4.91-3.12-7.23-2.87-6.08-1.05-14.81-1-18.84,0-2.48,1.31-11,3.76-14.51l-1.62-2,.58-.87,2,1.08c.53-5.76,3.61-14.71,7.42-17.22,5.28,3.6,11.81,13.65,13.46,21l-4.78,10.3-.8,4.2,2,.51L150.67,158c3.63,7.45,2.5,6.75,9,11.37ZM139.5,108.14c-4-1.11-16.44-37.42,12.13-37.18l8.18.07c13.1.11,7.21,21,20.31,23.34,5.61,1,10.46-3.9,14.68-6.1,5.25-2.74,10.31-3.74,14.92-5.91l2.51,2.16c.44,16.47-14.17,20-16.38,25.91-6.89-.06-8.31,2.7-14.44.69-2-.64-4.25-1.06-6.36-1.88-.24-.1-3.09-1.41-3.21-1.43a6.26,6.26,0,0,0-1.22,0c-.24,0-.82.89-1.12.59l-1.06-.77c1.3-2.53-8.5-15.68-14.26-15.73l-5.45,0C144.94,91.82,140.39,104.44,139.5,108.14Z" transform="translate(-14.46 -13.56)"/><path class="cls-1" d="M616.27,384.14l1.52.58,6.11,21c-5-.25-3.86-1.68-7.8-1.72h-.91c-3.12,0-5.24,4.14-6.41,6.31l-7.66,8.61,9-26.37-1-1,.94,0,6.21-7.39Zm-72.69-5.32c10.3.09,14.34,2.24,19.65,10.43,5.48,8.44,4,15.46,7.35,22.53-5.6-1.54-8.54-15.53-18.06-15.61-3.46,0-3.41,10.88-8.27,10.84-1.23,0-.5-1-3.62-1.85,1.78-3.75-3.54-11.59-3.51-14.57v-.91c.06-7.05,2.39-8.18,6.46-10.86Zm15-55.33c3.57-2.35,2.19-4.65,6.28-6.45,3-1.32,6.61-3.21,7.42-.71,12.49.11,24.41,15.73,24.31,28.39l0,3.64-2.37,24.58c-5.22-8.68-4.11-27.15-18.49-31.12l-.47,1.81c-3.09-1.57-8.24,2.47-8.69,6.29l-3.68.72c-10.13-5.33-1.76-21.58-4.28-27.15Zm70.95,75.32c-1.31,14.68-11.68,12.65-11.7,15.19-.06,6.21,20.73-3.23,22.5-11,1.36-6,.91-33.32-3-33.35-2.65,0-1,.75-4.56,1.78L631.8,375c1.11,2.45-2,20.54-2.26,23.79Zm11-72.66.89.61c-.18.21-.3,11.14-.1,12.68.7,5.46,1.11,5.51,5.23,8.43l-4.55,0,2.24,3.14-1.31.64-.1,6.23-12.64-4-6.6,13.77,1.68,2-1.64.26.88.71-3.12,10.8-1.54-13.88-.76-19,9.69-10.49,11.75-11.92Zm-53.58-27,0,4.55c0,4.44,2.16,11.45,5.49,12.82l-1.22,1.91,1.38.54L603,333.87l.9,10.91.12,10-1.19,10-1.64-.56,1,.81-5.7,22.2-7.72,25.33,1,.29c3-2.18,13-22.4,14.66-27.27,2-6.07,4.18-8.72,5.5-13.66,1.6-6,2.13-12.76,4-16.14-1.94-8.67-3.53-23.42-5-29.25C607,319.69,597,301.84,597,301.08c-5.16-.47-3.42-2.75-5.44-2.77a14.84,14.84,0,0,0-4.55.87Zm-51.4,57.76,1,62.74,37.58.31,29.09,0,10,.1,5.45.31,7.28-.19,21.81-.09,1.43-168.57c-39.6,14.34-77.91,40.94-114.67,82.33L535.89,356l3.29-1.07,9.87-20.36,1.27-.26,0,2.73c0,3.74,1.64,5.33,1.78,5.47l1,.76L551,345.06,557,360l14.93,0c13.87.12,20.83,9.89,20.72,22.9,0,4.29-2.12,9.49-2.92,14.45-.91,5.65-4,6.63-5.48,11.85-1.42-1.06-1.82-.18-1.8-2.74l.07-8.19h-1.82c1.12-1.63,1.83-1.58,1.85-3.62,0-3.5-.47-3.75-2.69-4.57l1.78-1c-.11-10.92-8.25-11.95-16.24-12.63-8.71-.75-20.88-.18-21.72-8.47l-1.64.54.64-.95L538,358l-.8-.51-1.63-.56ZM636.3,278.13l-6.39.7c-4.74,2.9-19.2,9.43-19.25,16l.11,8.18-.24,6.37h1.82l0,2.73c0,3.83,2.73,6.64,3.08,9.08.44,3.09,2,8.52,2.21,11l1.81,0,0-4.55c.09-10,.7-18.46,6.42-22.63l1,1.78,0-1.82c7.2.22,5.9,7.32,13.57,7.39,4.59,0,2.9-14.88,2.87-18.15C643.3,285.22,641.1,282.06,636.3,278.13Z" transform="translate(-14.46 -13.56)"/><path class="cls-1" d="M535.32,125.9l.1,16.39-.25,2.73.19,4.55-.25,2.72.13,10,.45,32.73-.11,10a404.14,404.14,0,0,1,113.83-60.52c.65-30.34-.19-60.89.07-91.27l-7.16-.06c1,3.87,1.8,1.61,1.78,4.56v.91c0,5.51-10.25,8.73-12.84,13.53-6.48.09-17.71,12.58-31.93,12.46-7.71-.06-9-1.82-14.39-3.88-10.2-3.87-5.4-1.74-16.47-1.83l-1.1,2.65-2.49-1-6.22,4.11-2.94,7.84,2.66-.88-.28,4.5-2.16-2.19-.68.67L557.44,97l-2.8.88L554,103.4l1.65.47c-2,1.12-2,1.64-2,4.94l0,5.45,4.17,3.16c.42,5,7.48,12.5.22,15.06l1,2.67c-1.57-1.58-1.23-2.67-3.78-2.69-1.25,0-2.19,1.88-2.75,2.7.24,3.21,1.33,3.74.85,7.28l-5.55,39.08c-4.79-3.42-6.18-54-10.66-58.31l4.68-5.35-3-16.4c-.57-6.67,4-21.85,6.17-26.2,4.74-9.6,13.81-10.52,15.43-16.4,4,1.89,2.39-.89,7.29-.85l1.81,0,7.4,1,24.6,9.52,22.11-9.2,6.24-2.92,11.45-2.62.07-.59-19.09,0-54.55-.66H535L535,86.83l.3,39.07Zm33.59,7.58c18.7,12.75,25.5,11.08,42.77-.51,4.56-3.06,2.33-3,7.74-5.84,5-2.63,5-4,8.79-6.69,3.07-2.21,14.51-12,17.29-12.68-.55,6-17,32.43-21,36.43-14.35,14.26-19.87,12.32-41.25,12.14l-2.72,0,0,1.82-3-1.48-19.71-5.11c0-5.77,7.76-15.89,11.06-18.06Zm60.92-.39c-1.63,1.6,1.63-1.61,0,0Zm-18.89-23.8c3.51,0,26.39-27.05,30.23-27l2.72,0c-.13,16.15-24.4,36.5-23.06,39.81-3.23.84-10.8,9-15.53,9l-4.55,0v1.82c-1.39-1.49-6.32-2.33-9.3-3.48-5.78-2.22-3.78-3.6-7.89-6.66,1.88-4-1.57-7.94-3.55-10.94l-3.61.11,0-1.05c-3.6.8-4.83.71-3.66,3.6-5,.5-1.51,2.72-7.3,2.67a3.49,3.49,0,0,1-3.6-3.67l0-5.45c.06-6.51,3.4-10.56,3.76-14.52l2.73,0c1.66,0,5.63-3.58,11.84-3.53,5.27,0,10.38,5.41,12.47,8.48,1.75,2.55,8.92,10.1,9.19,10.79Z" transform="translate(-14.46 -13.56)"/><rect class="cls-2" x="4.25" y="4.25" width="370.69" height="433.47"/><rect class="cls-2" x="24.11" y="26.34" width="330.97" height="387.03"/><rect class="cls-2" x="408.48" y="28.74" width="330.97" height="387.03"/><rect class="cls-2" x="388.48" y="5.17" width="370.69" height="433.47"/><path class="cls-3" d="M115.82,39.9c-4.58,97.61-3.08,172.81-1.41,224.72.54,16.77-1.63,31.8.69,44.45,3.61,19.73,12.94,33.68,20.46,39.43,54.16,41.38,121,15.19,143.11-24.17,23.4-41.66,13.82-120.23-51.37-243.72" transform="translate(-14.46 -13.56)"/><line class="cls-2" x1="209.24" y1="67.74" x2="277.36" y2="26.34"/><path class="cls-3" d="M297.57,39.9c57.41,89.73,72,163,72,228.5-.05,71.8-33.16,126.44-110.66,158.53" transform="translate(-14.46 -13.56)"/><path class="cls-3" d="M151.79,426.93q-94.14-8.16-113.22-90.19" transform="translate(-14.46 -13.56)"/><path class="cls-3" d="M115.82,39.9c-72.63,72.83-77.25,78-77.25,78" transform="translate(-14.46 -13.56)"/><polygon class="cls-1" points="308.33 39.43 342.9 39.08 343.3 108.18 308.33 39.43"/><polygon class="cls-1" points="36.51 38.32 60.15 38.52 36.8 63.34 36.51 38.32"/><path class="cls-1" d="M50.88,387.37l.56,29.11,34.65.28A178.1,178.1,0,0,1,50.88,387.37Z" transform="translate(-14.46 -13.56)"/><path class="cls-1" d="M300.65,417.65l57.24.49-.37-60C343.62,383.45,324.21,402.81,300.65,417.65Z" transform="translate(-14.46 -13.56)"/><path class="cls-3" d="M525.27,42.3l-2.38,189.38c39.15-36.78,84-65.33,139-79.2l-2-110.18" transform="translate(-14.46 -13.56)"/><path class="cls-3" d="M658.91,427.64l0-195.65c-52,23-96.14,55.06-132,96.65V429.33" transform="translate(-14.46 -13.56)"/><line class="cls-2" x1="0.15" y1="578.97" x2="762.94" y2="580.39"/><path d="M105.61,536.8l19.7,6.24q-4.55,16.5-15.08,24.51c-7,5.32-16,8-26.76,8q-20.06,0-33-13.7T37.57,524.37q0-25.14,13-39.07t34.14-13.9q18.48,0,30,10.92c4.6,4.3,8,10.49,10.32,18.56l-20.14,4.8a20.8,20.8,0,0,0-21.23-16.91q-11.19,0-18.17,8.05t-7,26q0,19.1,6.87,27.21a22.28,22.28,0,0,0,17.85,8.11A20.28,20.28,0,0,0,97.21,553C101.11,549.59,103.9,544.17,105.61,536.8Z" transform="translate(-14.46 -13.56)"/><path d="M138.65,524.09q0-15.4,4.6-25.84a48.14,48.14,0,0,1,9.38-13.82,39.61,39.61,0,0,1,13-9.05,55.08,55.08,0,0,1,21.72-4q22.26,0,35.62,13.81t13.37,38.39q0,24.42-13.28,38.18t-35.43,13.77q-22.49,0-35.74-13.7t-13.26-37.76Zm20.95-.68q0,17.1,7.9,25.94a25.76,25.76,0,0,0,20.08,8.82,25.47,25.47,0,0,0,19.95-8.77q7.78-8.76,7.79-26.27,0-17.31-7.57-25.84t-20.17-8.52q-12.6,0-20.29,8.63C162.18,503.15,159.6,511.8,159.6,523.41Z" transform="translate(-14.46 -13.56)"/><path class="cls-4" d="M252.28,573.84V473.11h42.83q16.14,0,23.45,2.72a23.17,23.17,0,0,1,11.73,9.64,29.06,29.06,0,0,1,4.38,15.87q0,11.34-6.66,18.74c-4.43,4.9-11.09,8-19.93,9.29a47.33,47.33,0,0,1,10.9,8.47q4.29,4.6,11.56,16.34l12.32,19.66H318.54l-14.71-21.93q-7.84-11.76-10.72-14.8a15.81,15.81,0,0,0-6.12-4.2c-2.16-.75-5.56-1.12-10.25-1.12h-4.1v42.05Zm20.36-58.14h15q14.64,0,18.3-1.22a11,11,0,0,0,5.69-4.27,13.22,13.22,0,0,0,2.07-7.55,12.12,12.12,0,0,0-2.72-8.21,12.48,12.48,0,0,0-7.67-4q-2.46-.33-14.85-.33H272.64Z" transform="translate(-14.46 -13.56)"/><polygon class="cls-4" points="339.44 560.27 339.44 459.54 359.8 459.54 359.8 499.18 399.65 499.18 399.65 459.54 419.98 459.54 419.98 560.27 399.65 560.27 399.65 516.23 359.8 516.23 359.8 560.27 339.44 560.27"/><path d="M455.34,473.11h20.33v54.55c0,8.65.26,14.28.75,16.84a16.34,16.34,0,0,0,6.21,9.92c3.29,2.51,7.77,3.75,13.44,3.75s10.13-1.17,13.07-3.54a13.85,13.85,0,0,0,5.27-8.68c.61-3.45.89-9.15.89-17.12V473.11h20.34V526q0,18.15-1.64,25.63a28.45,28.45,0,0,1-6.08,12.64,31,31,0,0,1-11.84,8.21q-7.43,3.06-19.4,3-14.42,0-21.88-3.33A31.29,31.29,0,0,1,463,563.56a27.55,27.55,0,0,1-5.7-11.16q-2-8.65-2-25.56Z" transform="translate(-14.46 -13.56)"/><rect x="542.01" y="459.54" width="20.33" height="100.73"/><polygon points="582.27 560.27 582.27 460.36 602.61 460.36 602.61 543.29 653.17 543.29 653.17 560.27 582.27 560.27"/><path d="M773,573.84H750.84L742,551H701.77l-8.3,22.89H671.9l39.23-100.73h21.51L773,573.84ZM735.52,534l-13.88-37.38L708,534Z" transform="translate(-14.46 -13.56)"/></svg>